<?xml version="1.0" encoding="utf-8"?>
<!DOCTYPE svg PUBLIC "-//W3C//DTD SVG 1.1//EN" "http://www.w3.org/Graphics/SVG/1.1/DTD/svg11.dtd">
<svg version="1.1" id="Layer_1" xmlns="http://www.w3.org/2000/svg" xmlns:xlink="http://www.w3.org/1999/xlink" x="0px" y="0px"
	 width="32px" height="32px" viewBox="0 0 32 32" enable-background="new
	  0 0 32 32" xml:space="preserve">
<path d="M15.5,3.029l-10.8,6.235L4.7,21.735L15.5,27.971l10.8-6.235V9.265L15.5,3.029zM15.5,7.029l6.327,3.652L15.5,14.334l-6.326-3.652L15.5,7.029zM24.988,10.599L16,15.789v10.378c0,0.275-0.225,0.5-0.5,0.5s-0.5-0.225-0.5-0.5V15.786l-8.987-5.188c-0.239-0.138-0.321-0.444-0.183-0.683c0.138-0.238,0.444-0.321,0.683-0.183l8.988,5.189l8.988-5.189c0.238-0.138,0.545-0.055,0.684,0.184C25.309,10.155,25.227,10.461,24.988,10.599z" fill="#666"/>
</svg>
