<?xml version="1.0" encoding="utf-8"?>
<!DOCTYPE svg PUBLIC "-//W3C//DTD SVG 1.1//EN" "http://www.w3.org/Graphics/SVG/1.1/DTD/svg11.dtd">
<svg version="1.1" id="Layer_1" xmlns="http://www.w3.org/2000/svg" xmlns:xlink="http://www.w3.org/1999/xlink" x="0px" y="0px"
	 width="32px" height="32px" viewBox="0 0 32 32" enable-background="new
	  0 0 32 32" xml:space="preserve">
<path d="M14.075,9.531c0,0-2.705-1.438-5.158-1.438c-2.453,0-4.862,0.593-4.862,0.593L3.971,9.869c0,0,0.19,0.19,0.528,0.53c0.338,0.336,0.486,3.741,1.838,5.094c1.353,1.354,4.82,1.396,5.963,0.676c1.14-0.718,2.241-3.466,2.241-4.693c0-0.38,0-0.676,0-0.676c0.274-0.275,1.615-0.303,1.917,0c0,0,0,0.296,0,0.676c0,1.227,1.101,3.975,2.241,4.693c1.144,0.72,4.611,0.678,5.963-0.676c1.355-1.353,1.501-4.757,1.839-5.094c0.338-0.34,0.528-0.53,0.528-0.53l-0.084-1.183c0,0-2.408-0.593-4.862-0.593c-2.453,0-5.158,1.438-5.158,1.438C16.319,9.292,14.737,9.32,14.075,9.531z" fill="#666"/>
</svg>
