<?xml version="1.0" encoding="utf-8"?>
<!DOCTYPE svg PUBLIC "-//W3C//DTD SVG 1.1//EN" "http://www.w3.org/Graphics/SVG/1.1/DTD/svg11.dtd">
<svg version="1.1" id="Layer_1" xmlns="http://www.w3.org/2000/svg" xmlns:xlink="http://www.w3.org/1999/xlink" x="0px" y="0px"
	 width="32px" height="32px" viewBox="0 0 32 32" enable-background="new
	  0 0 32 32" xml:space="preserve">
<path d="M12.558,15.254c2.362,0,4.277-1.916,4.277-4.279s-1.916-4.279-4.277-4.279c-2.363,0-4.28,1.916-4.28,4.279S10.194,15.254,12.558,15.254zM15.662,15.224c-0.875,0.641-1.941,1.031-3.103,1.031c-1.164,0-2.231-0.391-3.105-1.031c-0.75,0.625-1.498,1.519-2.111,2.623c-1.422,2.563-1.578,5.192-0.35,5.874c0.55,0.312,1.127,0.078,1.723-0.496c-0.105,0.582-0.166,1.213-0.166,1.873c0,2.938,1.139,5.312,2.543,5.312c0.846,0,1.265-0.865,1.466-2.188c0.201,1.311,0.62,2.188,1.462,2.188c1.396,0,2.544-2.375,2.544-5.312c0-0.66-0.062-1.291-0.167-1.873c0.598,0.574,1.174,0.812,1.725,0.496c1.228-0.682,1.069-3.311-0.353-5.874C17.159,16.742,16.412,15.849,15.662,15.224zM19.821,3.711l-1.414,1.414c1.499,1.499,2.428,3.569,2.428,5.851c0,2.283-0.929,4.353-2.428,5.853l1.413,1.412c1.861-1.86,3.015-4.43,3.015-7.265C22.835,8.142,21.683,5.572,19.821,3.711zM16.288,14.707l1.413,1.414c1.318-1.318,2.135-3.138,2.135-5.145c0-2.007-0.816-3.827-2.134-5.145l-1.414,1.414c0.956,0.956,1.547,2.275,1.547,3.731S17.243,13.751,16.288,14.707zM21.941,1.59l-1.413,1.414c2.042,2.042,3.307,4.862,3.307,7.971c0,3.11-1.265,5.93-3.308,7.972l1.413,1.414c2.405-2.404,3.895-5.725,3.895-9.386C25.835,7.315,24.346,3.995,21.941,1.59z" fill="#666"/>
</svg>
